<?xml version="1.0" encoding="UTF-8" standalone="no"?>
<!-- Created with Inkscape (http://www.inkscape.org/) -->

<svg
   version="1.1"
   id="svg182"
   width="626.03131"
   height="700"
   viewBox="0 0 626.0313 699.99998"
   sodipodi:docname="Logo Fédération Guinée Football.svg"
   inkscape:version="1.2 (dc2aeda, 2022-05-15)"
   xml:space="preserve"
   xmlns:inkscape="http://www.inkscape.org/namespaces/inkscape"
   xmlns:sodipodi="http://sodipodi.sourceforge.net/DTD/sodipodi-0.dtd"
   xmlns:xlink="http://www.w3.org/1999/xlink"
   xmlns="http://www.w3.org/2000/svg"
   xmlns:svg="http://www.w3.org/2000/svg"><defs
     id="defs186"><linearGradient
       inkscape:collect="always"
       id="linearGradient26889"><stop
         style="stop-color:#c1c2bd;stop-opacity:1"
         offset="0"
         id="stop26885" /><stop
         style="stop-color:#d3d3d3;stop-opacity:1"
         offset="0.13574849"
         id="stop26893" /><stop
         style="stop-color:#ffffff;stop-opacity:1"
         offset="0.22298846"
         id="stop29793" /><stop
         style="stop-color:#ffffff;stop-opacity:1"
         offset="1"
         id="stop26887" /></linearGradient><linearGradient
       inkscape:collect="always"
       id="linearGradient19295"><stop
         style="stop-color:#d8d6d7;stop-opacity:1"
         offset="0"
         id="stop19291" /><stop
         style="stop-color:#3f3f3f;stop-opacity:1"
         offset="1"
         id="stop19293" /></linearGradient><linearGradient
       inkscape:collect="always"
       xlink:href="#linearGradient19295"
       id="linearGradient19297"
       x1="424.39648"
       y1="328.30673"
       x2="-6.0056105"
       y2="106.09912"
       gradientUnits="userSpaceOnUse"
       gradientTransform="translate(-2.3832578e-5,-3.7976002e-5)" /><linearGradient
       inkscape:collect="always"
       xlink:href="#linearGradient26889"
       id="linearGradient26891"
       x1="218.20386"
       y1="442.41333"
       x2="422.39462"
       y2="604.56482"
       gradientUnits="userSpaceOnUse" /></defs><sodipodi:namedview
     id="namedview184"
     pagecolor="#ffffff"
     bordercolor="#000000"
     borderopacity="0.25"
     inkscape:showpageshadow="2"
     inkscape:pageopacity="0.0"
     inkscape:pagecheckerboard="0"
     inkscape:deskcolor="#d1d1d1"
     showgrid="false"
     inkscape:zoom="0.49953288"
     inkscape:cx="298.27866"
     inkscape:cy="499.46662"
     inkscape:window-width="1920"
     inkscape:window-height="917"
     inkscape:window-x="0"
     inkscape:window-y="25"
     inkscape:window-maximized="0"
     inkscape:current-layer="svg182"
     showguides="true" /><path
     d="M 68.739082,395.24211 C 112.69698,515.36843 190.65488,624.14738 313.03383,675.32633 523.1391,586.61054 609.64436,304.61053 602.90752,109.11579 l -84.46316,-24.884209 -9.09474,-26.400001 99.97895,29.452632 15.74737,4.631579 0.56842,16.399999 c 3.76842,109.34737 -20.12632,230.77895 -65.5579,333.17895 -55.09473,124.14737 -137.47368,212.25264 -238.21053,254.80001 l -8.8,3.70526 -8.82105,-3.68421 C 199.53909,652.52633 115.81277,563.9158 62.107503,440.04211 52.844345,418.67369 44.591713,396.27369 37.28645,373.20001 Z"
     style="fill:#000000;fill-opacity:1;fill-rule:nonzero;stroke:none;stroke-width:21.0526"
     id="path14362"
     clip-path="none" /><path
     d="M 306.59383,1.8947369 16.720134,87.284212 0.97276504,91.936844 0.42539661,108.31579 C -2.6061824,195.83158 10.656976,289.09474 37.288555,373.20001 v 0 l 31.452632,22.0421 C 33.604344,299.22106 20.172765,195.9579 23.162239,109.11579 v 0 L 313.03593,23.726316 518.44646,84.231581 509.35173,57.83158 319.45699,1.8947369 313.03593,0 Z"
     id="path13854"
     style="fill:url(#linearGradient19297);fill-opacity:1;stroke-width:21.0526" /><path
     id="path30340"
     style="color:#000000;fill:#000000;fill-opacity:1;stroke-width:21.0526;stroke-miterlimit:10;-inkscape-stroke:none"
     d="m 313.02927,21.751914 -291.734375,85.937496 -0.04,1.35537 c -3.377958,98.0244 14.070189,216.77826 59.990232,322.69727 45.920053,105.91903 120.384403,199.07921 231.044923,245.35351 l 0.73922,0.28917 0.74024,-0.33008 C 419.39875,632.45328 493.85026,539.34428 541.03122,433.01754 588.21219,326.6908 608.18474,207.10261 604.80661,109.04488 l -0.04,-1.35747 -291.20117,-85.771475 z" /><g
     id="g19139"
     transform="translate(-2.3832578e-5,-3.7976002e-5)"><path
       d="M 365.24227,39.098986 313.03174,23.709512 23.158052,109.09899 c -4.168421,120.90526 23.473685,273.6 97.263158,394.29474 L 309.90824,314.67482 Z"
       style="fill:#008e3f;fill-opacity:1;fill-rule:nonzero;stroke:none;stroke-width:21.0526"
       id="path14350"
       clip-path="none"
       sodipodi:nodetypes="cccccc" /><path
       d="M 602.90333,109.10951 537.87175,89.951619 314.09687,266.68836 240.08227,634.68847 c 22.33684,15.91579 46.58947,29.62105 72.94737,40.63158 210.10526,-88.69474 296.61053,-370.7158 289.87369,-566.21054"
       style="fill:#e30613;fill-opacity:1;fill-rule:nonzero;stroke:none;stroke-width:21.0526"
       id="path14360"
       clip-path="none"
       sodipodi:nodetypes="cccccc" /><path
       d="M 537.86333,89.949513 240.07385,634.70742 c -48.88422,-34.8 -88.42106,-80.18948 -119.66316,-131.30527 L 365.2528,39.107407 Z"
       style="fill:#ffdd00;fill-opacity:1;fill-rule:nonzero;stroke:none;stroke-width:21.0526"
       id="path14348"
       clip-path="none" /></g><g
     id="g18889"
     transform="translate(-2.3832578e-5,-3.7976002e-5)"><path
       d="m 234.35385,71.858987 c -20.31579,1.389473 -35.76843,16.8 -34.52632,34.442103 1.26316,17.62106 18.75789,30.77895 39.07368,29.38948 20.31579,-1.38948 35.78948,-16.82106 34.52632,-34.44211 -1.26316,-17.621052 -18.75789,-30.778947 -39.07368,-29.389473 m 24.56842,30.357893 c 0.75789,10.88421 -8.61053,20.42106 -20.90527,21.28421 -12.31579,0.86316 -22.92631,-7.28421 -23.68421,-18.16842 -0.75789,-10.884209 8.61053,-20.421051 20.92632,-21.284209 12.29474,-0.863158 22.90526,7.263158 23.66316,18.168419"
       style="fill:#000000;fill-opacity:1;fill-rule:nonzero;stroke:none;stroke-width:21.0526"
       id="path14516"
       clip-path="none" /><path
       d="m 465.56438,90.92425 c -19.89474,-4.336842 -39.05264,6.147369 -42.7579,23.43158 -3.72631,17.26316 9.41053,34.8 29.30527,39.13684 19.89473,4.33684 39.05263,-6.16842 42.75789,-23.43158 3.72632,-17.28421 -9.41053,-34.799997 -29.30526,-39.13684 m 15.11579,36 c -2.31579,10.67369 -13.9579,17.22105 -26.02106,14.61053 -12.06315,-2.61053 -19.97894,-13.38948 -17.66315,-24.06316 2.31579,-10.67369 13.95789,-17.2 26.02105,-14.58947 12.06316,2.61052 19.97895,13.36842 17.66316,24.0421"
       style="fill:#000000;fill-opacity:1;fill-rule:nonzero;stroke:none;stroke-width:21.0526"
       id="path14518"
       clip-path="none" /><path
       d="m 301.15806,129.05267 h -24.08421 v -9.68421 h 5.91579 V 77.642145 h -8.02106 V 67.536881 h 19.81053 l 31.6,42.126319 V 77.642145 h -7.91579 V 67.536881 h 26.71579 v 10.105264 h -7.38947 v 51.410525 h -10.42106 l -33.03157,-44.378946 0.18947,34.694736 h 6.63158 z"
       style="fill:#000000;fill-opacity:1;fill-rule:nonzero;stroke:none;stroke-width:21.0526"
       id="path14520"
       clip-path="none" /><path
       d="m 423.70122,79.334776 -9.68421,-3.789473 -2.33684,6.294737 c -6.16843,-5.642106 -14.63158,-9.452632 -24.18948,-10.126316 -20.31579,-1.452632 -37.76842,11.68421 -38.96842,29.305266 -1.2,17.62105 14.29474,33.09473 34.61053,34.52631 7.26315,0.52632 14.12631,-0.8421 20.0421,-3.57894 l -1.07368,7.01052 9.36842,1.87369 4.48421,-18.88421 3.11579,-13.13685 -11.6,-2.50526 -25.81053,-5.53684 -1.76842,10.14737 23.1579,4.98947 c -4.3579,4.96842 -11.38948,7.9579 -19.11579,7.43158 -12.31579,-0.86316 -21.66316,-10.37895 -20.90527,-21.28421 0.7579,-10.884212 11.34737,-19.03158 23.66316,-18.168422 9.01053,0.631579 16.42105,5.894737 19.45263,12.947368 0.25263,0.568421 0.46316,1.136842 0.65263,1.726316 l 10.52632,2.378948 z"
       style="fill:#000000;fill-opacity:1;fill-rule:nonzero;stroke:none;stroke-width:21.0526"
       id="path14522"
       clip-path="none" /><path
       d="m 183.79595,125.5032 c -2.14737,5.26316 -6.50526,9.89474 -12.48421,12.52631 -11.28421,4.96843 -24.02105,0.90527 -28.42105,-9.09473 -4.4,-10 1.2,-22.12632 12.50526,-27.09474 8.88421,-3.91579 18.61053,-2.168421 24.50526,3.62105 l 0.0211,-0.12631 10.4,-2.86316 -1.66316,-8.168422 -2.84211,-13.91579 -10.33684,1.2 1.28421,6.842105 c -8.14737,-2.189473 -17.49474,-1.642105 -26.33684,2.231579 -18.65263,8.189474 -28,27.915788 -20.84211,44.084208 7.13685,16.16843 28.04211,22.63158 46.69474,14.44211 10.71579,-4.69474 18.33684,-13.2 21.53684,-22.67369 z"
       style="fill:#000000;fill-opacity:1;fill-rule:nonzero;stroke:none;stroke-width:21.0526"
       id="path14524"
       clip-path="none" /></g><g
     id="g18899"
     transform="translate(-2.3832578e-5,-3.7976002e-5)"><path
       d="m 190.64227,189.4653 -8.48421,-21.55789 -3.85264,1.51579 -1.41052,-3.6 23.6421,-9.30526 3.41053,8.67368 -3.76842,1.47368 -2,-5.07368 -11.41053,4.50526 3.34737,8.50527 9.83158,-3.87369 1.43158,3.6 -9.85263,3.87369 3.72631,9.45263 3.89474,-1.53684 1.41053,3.6 -12.3579,4.86315 -1.41053,-3.6 z"
       style="fill:#000000;fill-opacity:1;fill-rule:nonzero;stroke:none;stroke-width:21.0526"
       id="path14526"
       clip-path="none" /><path
       d="m 215.75595,180.08636 -6.31579,-22.29474 -4.06316,1.15789 -1.07368,-3.72631 26.21053,-7.41053 2.52631,8.94737 -3.89473,1.11579 -1.47369,-5.2421 -13.47368,3.81052 2.50526,8.84211 11.72632,-3.30527 1.05263,3.70527 -11.72632,3.32631 2.7579,9.72632 13.45263,-3.81053 -1.51579,-5.41052 3.89474,-1.09474 2.58947,9.11579 -26.21053,7.41053 -1.05263,-3.70527 z"
       style="fill:#000000;fill-opacity:1;fill-rule:nonzero;stroke:none;stroke-width:21.0526"
       id="path14528"
       clip-path="none" /><path
       d="m 267.16016,159.76215 4.56842,1.51579 c -0.37894,3.53684 -1.83158,6.48421 -4.4,8.82105 -2.54736,2.35789 -5.70526,3.83158 -9.43158,4.46316 -4.88421,0.82105 -9.07368,-0.0211 -12.52631,-2.50527 -3.47369,-2.50526 -5.5579,-5.95789 -6.31579,-10.35789 -0.8,-4.84211 0.0421,-8.94737 2.52631,-12.31579 2.48422,-3.34737 6.12632,-5.43158 10.90527,-6.23158 4.23158,-0.71579 7.97895,-0.23158 11.22105,1.47368 l -0.46316,-2.8 4.16842,-0.69473 1.66316,9.78947 -4.18947,0.71579 c -1.26316,-1.83158 -2.94737,-3.13684 -5.07369,-3.89474 -2.12631,-0.75789 -4.25263,-0.96842 -6.37894,-0.61052 -3.22106,0.54737 -5.68421,2.08421 -7.38948,4.61052 -1.68421,2.54737 -2.25263,5.49474 -1.70526,8.84211 0.58947,3.43158 2.16842,6.0421 4.73684,7.85263 2.58948,1.81053 5.38948,2.44211 8.42105,1.93684 2.50527,-0.42105 4.63158,-1.55789 6.42106,-3.41052 1.78947,-1.85264 2.88421,-4.25264 3.2421,-7.2"
       style="fill:#000000;fill-opacity:1;fill-rule:nonzero;stroke:none;stroke-width:21.0526"
       id="path14530"
       clip-path="none" /><path
       d="m 281.94332,155.18109 c 0.16842,3.38948 1.34737,6.16842 3.57895,8.3579 2.21052,2.18947 5.03158,3.2 8.4421,3.03158 3.38948,-0.14737 6.10527,-1.47369 8.16842,-3.91579 2.06316,-2.46316 3.03158,-5.30527 2.86316,-8.56842 -0.14737,-3.28421 -1.41052,-6 -3.72631,-8.16842 -2.33685,-2.14737 -5.17895,-3.1579 -8.54737,-2.98948 -3.32632,0.16842 -6,1.41053 -8.02105,3.74737 -2,2.33684 -2.92632,5.17895 -2.7579,8.50526 m -5.38947,0.25264 c -0.21053,-4.50527 1.15789,-8.31579 4.10526,-11.49474 2.94737,-3.1579 6.92632,-4.88421 11.91579,-5.11579 5.03158,-0.25263 9.2,1.05263 12.52632,3.91579 3.30526,2.86316 5.09473,6.56842 5.30526,11.11579 0.23158,4.63158 -1.2,8.52631 -4.27369,11.68421 -3.07368,3.17895 -7.09473,4.88421 -12.06315,5.13684 -3.17895,0.14737 -6.12632,-0.42105 -8.84211,-1.72631 -2.73684,-1.28422 -4.82105,-3.17895 -6.27368,-5.66316 -1.47369,-2.48421 -2.25263,-5.11579 -2.4,-7.85263"
       style="fill:#000000;fill-opacity:1;fill-rule:nonzero;stroke:none;stroke-width:21.0526"
       id="path14532"
       clip-path="none" /><path
       d="m 318.02543,165.9053 1.15789,-23.13684 -4.14737,-0.21052 0.18948,-3.87369 25.38947,1.26316 -0.46316,9.30526 -4.0421,-0.21052 0.25263,-5.43158 -12.25263,-0.61053 -0.44211,9.1579 10.54737,0.50526 -0.18947,3.87368 -10.54737,-0.52631 -0.50526,10.14737 4.16842,0.21052 -0.18948,3.85263 -13.26316,-0.65263 0.18948,-3.87368 z"
       style="fill:#000000;fill-opacity:1;fill-rule:nonzero;stroke:none;stroke-width:21.0526"
       id="path14534"
       clip-path="none" /><path
       d="m 348.82753,156.23583 c -0.50526,3.34737 0.10527,6.31579 1.83158,8.90526 1.72632,2.58948 4.29474,4.14737 7.68421,4.65264 3.34737,0.52631 6.27369,-0.23158 8.8,-2.21053 2.50527,-2 4,-4.61053 4.50527,-7.83158 0.48421,-3.24211 -0.18948,-6.16842 -2.04211,-8.73684 -1.85263,-2.58948 -4.4421,-4.12632 -7.76842,-4.63158 -3.30526,-0.50526 -6.16842,0.18947 -8.61053,2.08421 -2.42105,1.87368 -3.89473,4.48421 -4.4,7.76842 m -5.32631,-0.8421 c 0.67368,-4.42106 2.77894,-7.91579 6.29473,-10.42106 3.53685,-2.52631 7.76842,-3.41052 12.71579,-2.65263 4.96842,0.7579 8.8,2.86316 11.49474,6.33684 2.67368,3.47369 3.66316,7.45263 2.98947,11.93685 -0.71579,4.58947 -2.88421,8.12631 -6.52631,10.61052 -3.64211,2.50527 -7.91579,3.36842 -12.84211,2.63158 -3.13684,-0.48421 -5.91579,-1.6421 -8.31579,-3.45263 -2.42105,-1.81053 -4.10526,-4.08421 -5.03158,-6.8 -0.92631,-2.73684 -1.2,-5.45263 -0.77894,-8.18947"
       style="fill:#000000;fill-opacity:1;fill-rule:nonzero;stroke:none;stroke-width:21.0526"
       id="path14536"
       clip-path="none" /><path
       d="m 387.7728,163.19583 c -0.92632,3.26316 -0.69474,6.29474 0.69473,9.07369 1.41053,2.77894 3.74737,4.63157 7.03158,5.57894 3.26316,0.92632 6.27369,0.56842 9.01053,-1.09473 2.73684,-1.66316 4.56842,-4.06316 5.45263,-7.2 0.90526,-3.1579 0.58947,-6.14737 -0.92632,-8.92632 -1.51578,-2.8 -3.87368,-4.65263 -7.11578,-5.57895 -3.22106,-0.92631 -6.14737,-0.58947 -8.8,0.98948 -2.65264,1.55789 -4.44211,3.95789 -5.34737,7.15789 m -5.17895,-1.49474 c 1.22105,-4.31579 3.74737,-7.51579 7.55789,-9.55789 3.83158,-2.06316 8.12632,-2.4 12.94737,-1.03158 4.84211,1.36842 8.37895,3.95789 10.58948,7.72632 2.23158,3.76842 2.71579,7.85263 1.47368,12.23158 -1.26316,4.4421 -3.87368,7.68421 -7.78947,9.70526 -3.93685,2.02105 -8.29474,2.33684 -13.07369,0.96842 -3.05263,-0.86316 -5.66316,-2.33684 -7.83158,-4.44211 -2.16842,-2.10526 -3.53684,-4.56842 -4.12631,-7.38947 -0.58948,-2.82105 -0.50527,-5.55789 0.25263,-8.21053"
       style="fill:#000000;fill-opacity:1;fill-rule:nonzero;stroke:none;stroke-width:21.0526"
       id="path14538"
       clip-path="none" /><path
       d="m 424.39596,187.45899 8.90526,-21.38948 -6.25263,-2.61052 -3.03158,7.28421 -3.72632,-1.5579 4.50527,-10.8421 24.50526,10.18947 -4.50526,10.84211 -3.74737,-1.53684 3.03158,-7.28421 -6.21053,-2.58948 -8.90526,21.38948 3.93684,1.6421 -1.47369,3.5579 -12.37894,-5.13685 1.47368,-3.55789 z"
       style="fill:#000000;fill-opacity:1;fill-rule:nonzero;stroke:none;stroke-width:21.0526"
       id="path14540"
       clip-path="none" /></g><g
     id="g30329"
     transform="translate(-2.3832578e-5,-3.7976002e-5)"><path
       d="m 348.42122,358.53689 c 6.02105,4 11.78947,8.37894 17.17894,13.17894 2.73685,2.37895 5.32632,4.92632 7.85264,7.62106 2.50526,2.65263 4.71579,5.91579 6.37894,9.22105 1.66316,3.36842 2.73685,7.36842 2.58948,11.22105 -0.0842,1.87369 -0.23158,3.81053 -0.8,5.74737 -0.52632,1.83158 -1.17895,3.5579 -1.91579,5.22105 -2.84211,6.71579 -6.46316,12.96843 -10.21053,19.13685 2.42105,-6.8 5.13684,-13.47369 7.45263,-20.18948 2.56842,-6.61052 2.65263,-13.43158 -0.52631,-19.45263 -1.49474,-3.13684 -3.34737,-5.91579 -5.66316,-8.54737 -2.25263,-2.71579 -4.73684,-5.26316 -7.17895,-7.85263 z"
       style="fill:#000000;fill-opacity:1;fill-rule:nonzero;stroke:none;stroke-width:21.0526"
       id="path14408"
       clip-path="none" /><path
       d="m 381.85069,341.40215 c -2.52631,-6.16842 -9.26316,-15.45263 -18.54737,-15.45263 -6.31579,0 -14.56842,3.66316 -20.54737,8.02105 -0.58947,10.84211 -0.75789,19.32632 5.66316,24.56842 7.57895,6.16842 23.03158,19.66316 27.53684,26.96842 4.48421,7.30527 5.05264,11.51579 4.48421,17.41053 -0.54736,5.89474 -8.69473,22.18947 -10.94736,26.96842 -2.25264,4.77895 6.16842,7.30527 6.16842,7.30527 0,0 5.89473,-3.36843 8.71579,-9.28422 2.8,-5.89473 7.57894,-18.8 7.03158,-26.67368 -0.33685,-4.52632 -1.66316,-10.29474 -2.31579,-16.23158 -3.32632,-6.14737 -6.12632,-12.8421 -6.12632,-19.45263 0,-10.65263 1.41053,-17.9579 -1.11579,-24.14737"
       style="fill:#41383e;fill-opacity:1;fill-rule:nonzero;stroke:none;stroke-width:21.0526"
       id="path14410"
       clip-path="none" /><path
       d="m 303.05701,408.92636 -25.97895,23.01053 -30.58948,-1.41053 c -20.29473,14.63158 -35.72631,35.6 -43.43158,60 v 0 l 10.82106,30.18948 -13.5579,30.18947 c 5.51579,25.5579 19.34737,48.04211 38.54737,64.44211 v 0 l 44.06316,0.25263 28.4,27.89474 c 1.32632,0.0632 2.63158,0.12631 3.95789,0.12631 v 0 c 24.65264,0 47.5158,-7.6 66.42106,-20.54737 v 0 l 8.42105,-47.13684 39.85263,-23.68421 c 1.93685,-8.46316 2.98948,-17.26316 2.98948,-26.31579 v 0 c 0,-13.47368 -2.29474,-26.4 -6.46316,-38.46316 v 0 l -38.90526,-27.2 -11.5579,-35.11579 c -17.72632,-10.71579 -38.50526,-16.88421 -60.7579,-16.88421 v 0 c -4.12631,0 -8.21052,0.23158 -12.23157,0.65263"
       id="path13848"
       style="fill:url(#linearGradient26891);fill-opacity:1;stroke-width:21.0526" /><path
       d="m 0,0 c 0,-3.087 -2.502,-5.589 -5.589,-5.589 -3.087,0 -5.589,2.502 -5.589,5.589 0,3.087 2.502,5.589 5.589,5.589 C -2.502,5.589 0,3.087 0,0 Z"
       style="fill:none;stroke:#000000;stroke-width:0.135;stroke-linecap:butt;stroke-linejoin:miter;stroke-miterlimit:10;stroke-dasharray:none;stroke-opacity:1"
       id="path14446"
       clip-path="none"
       transform="matrix(21.052632,0,0,-21.052632,432.97069,525.94531)" /><path
       d="m 391.72017,574.99584 -46.04211,-33.22105 -0.73684,-50.00001 44.31579,-30.33684 37.2421,26.04211 c -9.05263,-26.18948 -27.09473,-48.21053 -50.4421,-62.31579 l 10.92631,33.2421 -44.33684,30.3579 -52.86316,-17.53684 -11.43158,-40.42106 24.71579,-21.89473 c -20.98947,2.16842 -40.33684,9.87368 -56.56842,21.6 l 28.18947,1.30526 11.13685,39.38947 -29.70527,47.62106 h -42.92631 l -10.12632,-28.29474 c -2.84211,9.01053 -4.56842,18.48421 -5.1579,28.29474 h -0.14736 v 3.78947 0 c -0.0421,1.11579 -0.12632,2.21053 -0.12632,3.32632 0,8.56842 0.94737,16.90526 2.67368,24.96842 l 12.71579,-28.29474 h 43.09474 l 32.27369,41.6 -8.65263,51.36842 -40.88422,-0.23158 c 19.62106,16.8 44.84211,27.24211 72.46316,28.16843 l -27.81052,-27.38948 8.8,-52.33684 51.91579,-18.4 45.49474,32.8421 -8.00001,44.84211 c 24.00001,-16.46316 41.57895,-41.5579 48.25264,-70.84211 z"
       style="fill:#000000;fill-opacity:1;fill-rule:nonzero;stroke:none;stroke-width:21.0526"
       id="path14448"
       clip-path="none" /><path
       id="path14450"
       clip-path="none"
       style="fill:#c3b57b;fill-opacity:1;fill-rule:nonzero;stroke:none;stroke-width:21.0526"
       d="m 258.54492,190.85742 c -14.33683,0 -28.65192,16.84075 -30.63086,20.50391 -1.9579,3.64209 -3.36857,8.42284 -10.67383,11.51758 -7.30525,3.07367 -7.57806,14.58914 -8.14648,23.03125 -0.54737,8.42104 -3.72656,7.85239 -3.72656,16.27343 0,8.44211 -0.75813,15.17883 0.084,17.13672 0.8421,1.97895 3.3675,5.3469 2.52539,12.35742 -0.8421,7.03158 0.84308,17.43096 3.09571,23.87305 2.25262,6.46315 10.67252,12.08489 14.60937,15.74805 0,0 -1.13606,9.26419 2.80078,18.52734 3.93684,9.26315 11.51563,29.22 11.51563,41.85156 0,12.65262 -8.99029,32.29583 -14.61133,35.95899 -5.62105,3.6421 -1.95631,10.67351 1.41211,11.51562 3.36841,0.8421 15.72513,-0.84375 24.98828,-0.84375 9.2842,0 7.87422,-9.83012 5.07422,-15.45117 -2.82106,-5.62104 -2.82203,-23.87443 -3.09571,-31.17969 -0.29473,-7.30525 2.52782,-15.452 6.16993,-23.87304 0,0 4.20996,1.68359 7.30468,1.68359 3.09474,0 5.34766,-5.62109 5.34766,-5.62109 l 7.57813,8.99023 c 0,0 6.16955,-12.63162 7.58007,-17.62109 0,0 8.14647,7.51548 14.33594,12.84179 6.16842,5.34737 13.47461,25.55797 13.47461,33.43165 0,7.87367 -2.52734,16.84219 -2.52734,27.24218 0,10.39999 11.24245,10.67383 20.77929,10.67383 9.55788,0 18.25196,-1.958 18.25196,-5.05273 0,-3.09474 -3.6417,-5.05315 -11.78907,-9.26367 -8.14736,-4.21053 -13.47265,-25.55727 -13.47265,-46.0625 0,-20.50524 5.32463,-32.31572 9.53515,-38.75782 4.23158,-6.46315 17.7056,-14.33789 26.96875,-14.33789 9.28421,0 16.02253,9.26365 18.54883,15.45313 2.52632,6.16841 1.11524,13.47281 1.11524,24.14648 0,10.67368 7.30478,21.64341 12.35742,30.06445 5.05262,8.42106 2.2536,17.13688 3.0957,27.81055 0.84211,10.67367 -5.89463,15.99994 -10.94726,16.56836 -5.07368,0.56842 -9.5589,0.84166 -8.7168,6.16797 0.84211,5.34736 9.55753,8.44135 13.41016,9.00977 3.83157,0.54736 11.60044,2.80002 20.02148,-12.37891 5.56736,-10.02124 3.88021,-18.33247 1.45508,-26.70703 -1.25096,-3.99288 -2.63054,-7.94411 -3.50586,-12.08203 -0.88421,-4.3579 -1.34764,-8.80009 -1.53711,-13.24219 -0.37895,-8.90525 0.40093,-17.80939 1.47461,-26.60938 0.50526,-4.42104 1.28293,-8.82136 1.74609,-13.1582 0.42105,-4.3579 0.56991,-8.73629 0.35938,-13.11523 -0.4421,-8.69474 -2.2114,-17.43342 -6.04297,-25.13868 l -4.82031,-9.74609 7.1582,8.21094 c 2.50526,2.90527 4.16701,6.46293 5.07227,10.08398 0.94736,3.62105 1.32633,7.24203 1.81054,10.75782 0.69474,7.03157 2.77883,13.66203 5.13672,20.41992 2.33684,6.67368 4.97015,13.30531 8.08594,19.62109 1.6,3.11579 3.19811,6.23173 5.42969,8.67383 2.29473,2.63158 4.75903,4.98893 7.58007,6.92578 5.62105,3.83158 12.33589,6.48543 18.9043,8.82227 1.64211,0.54737 3.30669,1.03186 4.92774,1.34765 0.82104,0.16842 1.62014,0.27387 2.33593,0.29492 0.2447,0.0371 0.47122,0.01 0.66992,-0.0234 -0.0378,-0.0699 -0.06,-0.13164 -0.12304,-0.20899 -0.33684,-0.52632 -0.8617,-1.09435 -1.45117,-1.59961 -1.13684,-1.03158 -2.5476,-1.91531 -3.91602,-2.35742 -0.54737,-0.18947 -1.68567,-0.44311 -2.54883,-0.7168 -0.90526,-0.27368 -1.78918,-0.61041 -2.65234,-0.94726 -1.74737,-0.69473 -3.4102,-1.51576 -5.03125,-2.37891 -3.26316,-1.74737 -6.3365,-3.76777 -9.2207,-6.0625 -2.90527,-2.33684 -5.55877,-4.61011 -8.04297,-7.78906 -2.16842,-3.2 -3.66175,-6.50615 -5.07227,-9.85352 -2.8,-6.77894 -5.07441,-13.32604 -7.36914,-20.46289 -0.73685,-3.76841 -0.96827,-7.22054 -1.51562,-10.73633 -0.50527,-3.49473 -1.13642,-6.96837 -1.97852,-10.3789 -0.82105,-3.38947 -1.74814,-6.90657 -2.99024,-10.06445 -1.2421,-3.17895 -2.9466,-6.21021 -5.00976,-9.03125 -4.08421,-5.64211 -9.24333,-10.5475 -14.82227,-14.86329 -2.79999,-2.16841 -5.7258,-4.14737 -8.73632,-6 -3.03158,-1.83157 -6.0845,-3.64139 -9.34766,-4.63085 -6.67367,-2.02105 -13.85211,-2.77858 -20.92578,-3.41016 -7.11578,-0.61052 -14.23122,-0.78076 -21.41016,-1.32813 -3.74736,-0.12632 -6.94716,-2.23155 -9.89453,-4.18945 -2.94736,-2.0421 -5.6419,-4.46129 -7.89453,-7.24023 0.15636,0.1773 0.32827,0.33969 0.48828,0.51367 -0.15686,-0.17878 -0.32766,-0.34305 -0.48047,-0.52539 -2.29474,-2.71579 -6.58996,-4.98872 -5.45312,-9.00977 0.8,-2.8 2.52734,-10.35844 2.52734,-19.07422 0,-8.69473 -7.03179,-15.45251 -10.10547,-17.13672 -3.09474,-1.6842 -9.55846,-8.42063 -14.88476,-11.78906 -5.34737,-3.36841 -17.70571,-16 -32.02149,-16 z" /><path
       d="m 224.09911,437.19373 c -1.89474,-1.17895 -3.17895,-3.62105 -2.8,-6.27368 0.14737,-1.32632 0.8421,-2.54737 1.68421,-3.5579 0.4,-0.50526 0.94737,-0.90526 1.41053,-1.28421 l 1.22105,-0.94737 c 1.74737,-1.2 3.74737,-2.4421 6.02105,-2.94737 2.25263,-0.56842 4.71579,-0.4 6.67369,0.67369 -2.18948,0.50526 -3.97895,1.17895 -5.64211,2.10526 -1.66316,0.92632 -3.2,2.02105 -4.84211,3.24211 l -1.30526,0.90526 c -0.37895,0.25263 -0.65263,0.48421 -0.96842,0.73684 -0.61053,0.50527 -1.05263,1.09474 -1.41053,1.81053 -0.65263,1.43158 -0.67368,3.41053 -0.0421,5.53684"
       style="fill:#010202;fill-opacity:1;fill-rule:nonzero;stroke:none;stroke-width:21.0526"
       id="path14452"
       clip-path="none" /><path
       d="m 239.72016,218.93688 c -7.57895,4.77895 -10.10526,17.70527 -10.10526,21.62106 0,3.93684 0,11.51579 4.21053,16.29473 4.21052,4.77895 4.77894,8.71579 5.62105,14.33685 0.8421,5.6 3.91579,11.22105 8.14737,12.90526 4.21052,1.68421 4.48421,4.50526 8.69473,5.34737 4.21053,0.8421 4.21053,-5.05263 5.89474,-7.57895 1.68421,-2.52631 4.77895,-1.97895 9.43158,-5.34737 4.65263,-3.36842 5.17895,-11.78947 5.17895,-17.07368 0,-5.28421 7.30526,-12.98948 9.26316,-16.63158 1.97894,-3.64211 0.29473,-9.5579 -1.9579,-10.10526 -2.25263,-0.56843 -6.73684,-5.89474 -10.10526,-9.28421 -3.38948,-3.36843 -10.67369,-11.51579 -17.70527,-11.51579 -4.94737,0 -8.98947,2.25263 -16.56842,7.03157 m 48.02106,136.29474 c -1.38948,4.98948 -7.57895,17.62106 -7.57895,17.62106 l -7.57895,-8.96842 c 0,0 -2.25263,5.6 -5.34737,5.6 -3.07368,0 -7.28421,-1.68421 -7.28421,-1.68421 0,0 -0.54737,-5.49474 -2.46316,-8.06316 -1.91579,-2.54737 -3.15789,-7.68421 -5.91579,-12.8 0,0 -5.91579,-1.17895 -11.83158,-3.1579 -5.91578,-1.97895 -8.27368,-6.69473 -14.06315,-12.48421 -3.93685,-3.66316 -12.3579,-9.26316 -14.61053,-15.72631 -2.25263,-6.46316 -3.93684,-16.86316 -3.09474,-23.87369 0.84211,-7.03158 -1.68421,-10.4 -2.52631,-12.35789 -0.84211,-1.97895 -0.0632,-8.71579 -0.0632,-17.13685 0,-8.4421 3.15789,-7.87368 3.72632,-16.29473 0.54736,-8.42106 0.8421,-19.9579 8.14736,-23.03158 7.30527,-3.09474 8.69474,-7.87369 10.67369,-11.51579 1.95789,-3.66316 16.27368,-20.50527 30.61053,-20.50527 14.31578,0 26.67368,12.63158 32.02105,16 5.32631,3.36842 11.78947,10.12632 14.88421,11.81053 3.09474,1.68421 10.10526,8.42105 10.10526,17.13684 0,8.69474 -1.55789,16.31579 -2.52631,19.05263 -2.71579,7.70527 -5.47369,12.44211 -3.89474,22.29474 1.57895,9.85263 0.8,19.70527 -3.93684,26.42106 -4.73684,6.69473 -8.67369,11.83157 -11.03158,20.10526 -2.37895,8.27368 -6.42105,31.55789 -6.42105,31.55789"
       style="fill:#87602f;fill-opacity:1;fill-rule:nonzero;stroke:none;stroke-width:21.0526"
       id="path14454"
       clip-path="none" /><path
       id="path14456"
       clip-path="none"
       style="fill:#000000;fill-opacity:1;fill-rule:nonzero;stroke:none;stroke-width:21.0526"
       d="m 318.47461,263.87891 c 2.25263,2.77894 4.94717,5.19813 7.89453,7.24023 2.94737,1.9579 6.14717,4.06313 9.89453,4.18945 7.17894,0.54737 14.29438,0.71761 21.41016,1.32813 7.07367,0.63158 14.25211,1.38911 20.92578,3.41016 3.26316,0.98946 6.31608,2.79928 9.34766,4.63085 3.01052,1.85263 5.93633,3.83159 8.73632,6 5.57894,4.31579 10.73806,9.22118 14.82227,14.86329 2.06316,2.82104 3.76766,5.8523 5.00976,9.03125 1.2421,3.15788 2.16919,6.67498 2.99024,10.06445 0.8421,3.41053 1.47325,6.88417 1.97852,10.3789 0.54735,3.51579 0.77877,6.96792 1.51562,10.73633 2.29473,7.13685 4.56914,13.68395 7.36914,20.46289 1.41052,3.34737 2.90385,6.65352 5.07227,9.85352 2.4842,3.17895 5.1377,5.45222 8.04297,7.78906 0.85393,0.67941 1.73003,1.32756 2.61718,1.95899 l -3.78906,2.33593 c -0.23935,-0.15651 -0.48706,-0.30425 -0.72266,-0.46484 -2.82104,-1.93685 -5.28534,-4.2942 -7.58007,-6.92578 -2.23158,-2.4421 -3.82969,-5.55804 -5.42969,-8.67383 -3.11579,-6.31578 -5.7491,-12.94741 -8.08594,-19.62109 -2.35789,-6.75789 -4.44198,-13.38835 -5.13672,-20.41992 -0.48421,-3.51579 -0.86318,-7.13677 -1.81054,-10.75782 -0.90526,-3.62105 -2.56701,-7.17871 -5.07227,-10.08398 l -7.1582,-8.21094 4.82031,9.74609 c 3.83157,7.70526 5.60087,16.44394 6.04297,25.13868 0.21053,4.37894 0.0617,8.75733 -0.35938,13.11523 -0.46316,4.33684 -1.24083,8.73716 -1.74609,13.1582 -1.07368,8.79999 -1.85356,17.70413 -1.47461,26.60938 0.18947,4.4421 0.6529,8.88429 1.53711,13.24219 0.92631,4.37893 2.4213,8.54773 3.72656,12.77929 -1.13684,-4.27367 -2.46237,-8.52687 -3.19922,-12.88476 -0.69473,-4.33684 -1.0536,-8.75821 -1.0957,-13.15821 -0.10527,-8.82104 0.90458,-17.62058 2.25195,-26.35742 0.65263,-4.35788 1.49561,-8.69505 2.04297,-13.1582 0.27622,-2.33127 0.46558,-4.67932 0.57031,-7.0332 0.86168,3.18164 1.85836,6.31884 2.9043,9.37109 2.35789,6.79999 4.96711,13.5147 8.125,20.04102 1.64211,3.24209 3.32763,6.5904 5.875,9.4746 2.4,2.77895 5.11578,5.41081 8.18945,7.53711 6.21053,4.27369 12.92591,6.92595 19.78907,9.41016 1.7263,0.61053 3.4935,1.13668 5.36718,1.51563 0.94737,0.21052 1.91656,0.35829 2.99024,0.40039 1.03158,-0.0842 2.33684,0.23129 4,-1.34766 0.84211,-0.92632 0.82185,-2.25209 0.61133,-2.92578 -0.18948,-0.75789 -0.50648,-1.30485 -0.82227,-1.78906 -0.63157,-0.96842 -1.34605,-1.70717 -2.125,-2.38086 -1.53684,-1.32631 -3.20161,-2.39859 -5.22266,-3.07227 -6.90526,-1.64211 -12.86202,-5.15906 -18.41992,-9.39062 -2.67367,-2.08422 -5.45378,-4.56767 -7.39062,-7.00977 -1.85263,-2.71579 -3.36834,-5.93715 -4.75781,-9.1582 -2.71579,-6.4421 -5.15689,-13.40946 -7.28321,-19.85157 -0.67368,-3.24209 -0.96869,-6.94753 -1.53711,-10.48437 -0.54737,-3.57895 -1.22126,-7.13656 -2.10547,-10.65234 -0.92632,-3.53684 -1.89417,-6.96925 -3.30468,-10.42188 -1.43158,-3.45264 -3.32659,-6.65182 -5.53711,-9.57812 -4.4421,-5.85263 -9.85312,-10.80141 -15.64258,-15.11719 -2.90527,-2.18947 -5.93695,-4.14737 -9.05274,-6 -3.09473,-1.76842 -6.29453,-3.62077 -9.89453,-4.65234 -7.05262,-2.02106 -14.27332,-2.48324 -21.41015,-2.9043 -7.15789,-0.42105 -14.33735,-0.35847 -21.45313,-0.69531 -3.51578,0.0211 -6.69498,-1.93752 -9.72656,-3.74805 -2.98947,-1.91579 -5.76711,-4.20914 -8.125,-6.88281 z" /><path
       d="m 336.34543,340.27794 c 2.46316,-3.89474 6.21052,-6.82105 10.08421,-9.28421 3.91579,-2.44211 8.16842,-4.44211 12.77895,-5.49474 2.27368,-0.52631 4.75789,-0.71579 7.17894,-0.23158 2.42106,0.46316 4.67369,1.49474 6.67369,2.86316 3.97894,2.77895 6.98947,6.61053 9.2,10.82105 2.4421,4.29474 2.82105,9.47369 2.69473,14.02106 -0.0842,4.61052 -0.4,9.2 -0.25263,13.6 0.52632,8.63158 5.28421,16.65263 9.9579,24.33684 1.15789,1.95789 2.48421,3.78947 3.51579,6.14737 1.03158,2.29473 1.6,4.75789 1.87368,7.15789 0.50526,4.84211 0,9.45263 -0.0421,13.93685 -0.0632,2.31578 0.12631,4.27368 0.18947,6.82105 0,2.46316 -0.37895,4.98947 -1.30526,7.34737 -1.83158,4.69473 -6.10527,8.73684 -11.47369,9.28421 -2.23158,0.21052 -4.58947,0.33684 -6.08421,1.13684 -0.73684,0.37895 -1.07368,0.86316 -1.22105,1.6421 -0.14737,0.82106 -0.0211,1.85264 0.29474,2.63158 0.65263,1.66316 2.37894,3.09474 4.18947,4.18948 1.83158,1.09473 3.91579,1.93684 6.02105,2.52631 2.04211,0.48421 4.42106,0.96842 6.44211,0.86316 2.10526,-0.0842 4.18947,-0.75789 6,-1.95789 3.70526,-2.37895 6.4421,-6.16842 8.8,-10.02106 l -0.0211,0.0632 3.47368,-8.02105 -2.77895,8.27368 -0.0211,0.0211 v 0.0421 c -2.16842,4.02105 -4.67368,8.06316 -8.56842,10.92632 -1.91579,1.43158 -4.27369,2.42105 -6.73684,2.61052 -1.24211,0.10527 -2.46316,0.0421 -3.64211,-0.10526 -1.13684,-0.16842 -2.29474,-0.29474 -3.49474,-0.56842 -2.31579,-0.56842 -4.56842,-1.36842 -6.69473,-2.54737 -2.06316,-1.17895 -4.25263,-2.67368 -5.43158,-5.2421 -0.56842,-1.32632 -0.77895,-2.63158 -0.61053,-4.08422 0.12632,-1.49473 1.22105,-3.11578 2.52632,-3.78947 2.58947,-1.38947 4.96842,-1.38947 7.22105,-1.76842 3.89474,-0.42105 7.28421,-3.55789 8.67368,-7.32632 0.73685,-1.89473 1.03158,-3.97894 1.01053,-6.08421 -0.0842,-2.02105 -0.31579,-4.63158 -0.27368,-6.88421 -0.0211,-4.65263 0.4,-9.22105 -0.10527,-13.47368 -0.27368,-2.14737 -0.8,-4.16842 -1.6421,-6.06316 -0.84211,-1.81053 -2.10526,-3.78947 -3.26316,-5.74737 -4.58947,-7.85263 -9.64211,-16.23158 -10.16842,-26.12631 -0.10526,-4.7579 0.27368,-9.28422 0.4,-13.81053 0.12631,-4.52632 0.0632,-8.84211 -1.9579,-12.71579 -1.89473,-3.91579 -4.58947,-7.57895 -8.0421,-10.16842 -1.74737,-1.28421 -3.68421,-2.27369 -5.74737,-2.73684 -2.06316,-0.50527 -4.25263,-0.37895 -6.44211,-0.0421 -4.35789,0.73684 -8.63157,2.42105 -12.58947,4.58947 -3.93684,2.21053 -7.81053,4.77895 -10.58947,8.44211"
       style="fill:#000000;fill-opacity:1;fill-rule:nonzero;stroke:none;stroke-width:21.0526"
       id="path14458"
       clip-path="none" /><path
       d="m 340.27806,425.1032 c -3.03158,-1.22105 -5.1579,-4.02105 -6.90526,-6.71579 -1.68422,-2.82105 -3.03158,-5.81052 -4.04211,-8.88421 -2.10526,-6.14736 -3.22105,-12.56842 -3.89474,-18.96842 -0.52631,-6.42105 -0.61052,-12.90526 0.14737,-19.32631 0.71579,-6.4 2.29474,-12.7579 4.94737,-18.58948 -2.44211,12.54737 -2.42105,25.09474 -1.32632,37.5579 0.58948,6.23158 1.49474,12.4421 2.96843,18.48421 0.71578,3.03158 1.6421,6.02105 2.8421,8.86316 1.1579,2.86315 2.71579,5.62105 5.26316,7.57894"
       style="fill:#000000;fill-opacity:1;fill-rule:nonzero;stroke:none;stroke-width:21.0526"
       id="path14460"
       clip-path="none" /><path
       d="m 298.02543,364.53268 c 2.23158,1.47368 4.4,2.8 6.4421,4.77894 1.89474,2 3.41053,4.25264 4.7579,6.58948 2.67368,4.65263 4.67368,9.6421 6.23158,14.75789 0.69473,2.58948 1.34736,5.22106 1.66315,7.97895 0.29474,2.86316 0.0421,5.6 -0.37894,8.23158 -0.82106,5.28421 -2.25264,10.29474 -3.41053,15.45263 -0.29474,-5.30526 0.16842,-10.61052 0.46316,-15.74737 0.0632,-2.58947 0.23158,-5.13684 -0.23158,-7.47368 -0.4,-2.44211 -1.01053,-4.92632 -1.74737,-7.36842 -1.43158,-4.92632 -3.2,-9.78948 -5.22105,-14.50527 -1.05263,-2.33684 -2.14737,-4.65263 -3.53684,-6.73684 -1.30527,-2.08421 -3.41053,-3.89474 -5.03158,-5.95789"
       style="fill:#000000;fill-opacity:1;fill-rule:nonzero;stroke:none;stroke-width:21.0526"
       id="path14462"
       clip-path="none" /><path
       d="m 256.85279,422.85899 c -2.56842,-4.12631 -3.17894,-9.05263 -3.89473,-13.70526 -0.61053,-4.69474 -0.82106,-9.43158 -0.98948,-14.12632 l -0.0632,-3.49473 c 0,-1.26316 0.0211,-2.52632 0.18947,-3.74737 0.31579,-2.46316 0.8421,-4.84211 1.62105,-7.13684 1.51579,-4.58948 3.64211,-8.84211 6.23158,-12.84211 -1.13684,4.61053 -2.46316,9.11579 -3.36842,13.6 -0.42105,2.25263 -0.82105,4.48421 -0.90526,6.69474 -0.0842,1.11579 -0.10527,2.21052 -0.0632,3.30526 l 0.14737,3.51579 0.14737,14.02105 c 0.14736,4.65264 -0.10527,9.32632 0.94736,13.91579"
       style="fill:#000000;fill-opacity:1;fill-rule:nonzero;stroke:none;stroke-width:21.0526"
       id="path14464"
       clip-path="none" /><path
       d="m 228.48437,349.82741 c 5.83158,10.18948 10.21053,21.17895 12.48421,32.88421 0.48421,2.94737 0.86316,5.93685 0.82106,9.01053 -0.12632,3.09474 -0.61053,6.08421 -1.43158,8.96842 -1.53685,5.76842 -4.06316,11.17895 -7.28421,16.10527 1.87368,-5.5579 3.38947,-11.1579 4.4,-16.73685 1.09473,-5.6421 0.88421,-11.05263 -0.23158,-16.69473 -0.96842,-5.6 -2.48421,-11.1579 -4,-16.73685 z"
       style="fill:#000000;fill-opacity:1;fill-rule:nonzero;stroke:none;stroke-width:21.0526"
       id="path14466"
       clip-path="none" /><path
       d="m 346.52437,438.0611 c 1.22106,-0.71579 2.44211,-1.32632 3.45264,-2.08421 0.46315,-0.4 0.92631,-0.8 1.07368,-1.17895 0.0842,-0.21052 0.10526,-0.27368 0.0842,-0.52631 -0.0211,-0.29474 -0.0211,-0.61053 -0.0842,-0.90527 -0.16842,-1.15789 -0.65263,-2.21052 -1.43158,-3.13684 -0.8,-0.92632 -1.91579,-1.66316 -3.15789,-2.31579 1.41052,-0.10526 2.88421,0.31579 4.12631,1.24211 1.28421,0.86315 2.08421,2.4 2.33684,3.93684 0.0632,0.37895 0.0421,0.75789 0.0632,1.13684 0.0211,0.42105 -0.10526,1.05263 -0.35789,1.43158 -0.54737,0.82105 -1.22105,1.26316 -1.91579,1.55789 -1.36842,0.63158 -2.7579,0.86316 -4.18948,0.84211"
       style="fill:#000000;fill-opacity:1;fill-rule:nonzero;stroke:none;stroke-width:21.0526"
       id="path14470"
       clip-path="none" /><path
       d="m 325.5349,429.88215 c 1.5579,-0.4 3.1579,-0.54737 4.7579,-0.48421 1.62105,0.0421 3.28421,0.33684 4.86315,1.26316 0.7579,0.48421 1.51579,1.2421 1.83158,2.23158 0.29474,1.01052 0.21053,1.93684 -0.0632,2.75789 -0.50526,1.70527 -1.66315,3.05263 -3.11578,3.78948 0.92631,-1.30527 1.55789,-2.71579 1.70526,-4.08421 0.12631,-1.47369 -0.21053,-2.42106 -1.36842,-3.09474 -1.09474,-0.69474 -2.56842,-1.05263 -4.02106,-1.43158 z"
       style="fill:#000000;fill-opacity:1;fill-rule:nonzero;stroke:none;stroke-width:21.0526"
       id="path14472"
       clip-path="none" /><path
       d="m 336.34543,428.76005 c 2.37894,-0.86316 5.57894,0.23158 6.94737,2.77894 1.38947,2.54737 0.71579,5.5579 -0.8,7.49474 0.0421,-1.26316 0.12631,-2.4421 0.0211,-3.55789 -0.12632,-1.11579 -0.3579,-2.14737 -0.88421,-3.03158 -0.96842,-1.81053 -2.84211,-3.01053 -5.28421,-3.68421"
       style="fill:#000000;fill-opacity:1;fill-rule:nonzero;stroke:none;stroke-width:21.0526"
       id="path14474"
       clip-path="none" /><path
       d="m 224.09911,437.19373 c -1.38947,-1.55789 -2.21053,-3.78947 -1.72632,-6 0.42106,-2.27368 2.46316,-3.78947 4.08421,-4.90526 1.70527,-1.2 3.51579,-2.37895 5.5579,-3.05263 2.0421,-0.71579 4.25263,-0.84211 6.29474,-0.37895 -4.25264,-0.27369 -8.04211,1.70526 -11.30527,4.21052 -1.78947,1.1579 -3.38947,2.33685 -3.93684,4.31579 -0.54737,1.89474 -0.0842,4.06316 1.03158,5.81053"
       style="fill:#000000;fill-opacity:1;fill-rule:nonzero;stroke:none;stroke-width:21.0526"
       id="path14476"
       clip-path="none" /><path
       d="m 230.42543,432.98742 c -0.25264,1.30526 -0.27369,2.14736 -0.33685,3.11578 -0.10526,0.94737 -0.12631,1.93685 -0.48421,3.24211 -0.54737,-0.42105 -0.86316,-0.94737 -1.11579,-1.53684 -0.25263,-0.56842 -0.33684,-1.22105 -0.29473,-1.85263 0.10526,-1.26316 0.8421,-2.69474 2.23158,-2.96842"
       style="fill:#000000;fill-opacity:1;fill-rule:nonzero;stroke:none;stroke-width:21.0526"
       id="path14478"
       clip-path="none" /><path
       d="m 237.18964,429.88215 c 0.0421,1.74737 -0.18948,3.22105 -0.27369,4.69474 -0.10526,1.49474 -0.14737,2.75789 0.27369,4.46316 -1.66316,-0.77895 -2.31579,-2.90527 -2.16843,-4.58948 0.16843,-1.74737 0.84211,-3.38947 2.16843,-4.56842"
       style="fill:#000000;fill-opacity:1;fill-rule:nonzero;stroke:none;stroke-width:21.0526"
       id="path14480"
       clip-path="none" /><path
       d="m 245.48227,428.75584 c 0.10526,1.78947 0.0421,3.30526 0.0842,4.86315 l -0.0211,2.3579 c -0.0211,0.8 0.0421,1.6 -0.0632,2.52631 -1.26316,-1.30526 -1.78948,-3.11578 -1.81053,-4.88421 0.0211,-0.88421 0.12632,-1.76842 0.44211,-2.58947 0.29473,-0.8421 0.69473,-1.64211 1.36842,-2.27368"
       style="fill:#000000;fill-opacity:1;fill-rule:nonzero;stroke:none;stroke-width:21.0526"
       id="path14482"
       clip-path="none" /><path
       d="m 385.93701,443.80636 c -0.37895,0.63158 -0.58948,1.1579 -0.84211,1.70527 -0.21052,0.56842 -0.48421,1.05263 -0.69474,1.57894 -0.27368,0.50527 -0.46315,1.01053 -0.69473,1.49474 -0.21053,0.50526 -0.4,0.98947 -0.3579,1.72632 -0.73684,-0.29474 -1.05263,-1.17895 -1.09473,-1.91579 -0.0632,-0.7579 0.14736,-1.47369 0.42105,-2.10527 0.33684,-0.63158 0.71579,-1.22105 1.28421,-1.66315 0.52632,-0.44211 1.2,-0.88422 1.97895,-0.82106"
       style="fill:#000000;fill-opacity:1;fill-rule:nonzero;stroke:none;stroke-width:21.0526"
       id="path14484"
       clip-path="none" /><path
       d="m 390.94964,446.37689 c -0.33684,0.61053 -0.42105,1.09474 -0.54737,1.6 l -0.29474,1.51579 c -0.18947,1.03158 -0.48421,1.85263 -0.4421,3.2 -0.69474,-0.23158 -1.11579,-0.90526 -1.32632,-1.5579 -0.23158,-0.67368 -0.18947,-1.36842 -0.0842,-2.02105 0.16842,-0.65263 0.4,-1.30526 0.88421,-1.81053 0.42106,-0.50526 1.07369,-1.01052 1.81053,-0.92631"
       style="fill:#000000;fill-opacity:1;fill-rule:nonzero;stroke:none;stroke-width:21.0526"
       id="path14486"
       clip-path="none" /><path
       d="m 395.76227,447.55584 c -0.0421,1.34736 0.0421,2.37894 0.0211,3.47368 -0.0211,0.52632 0.0211,1.03158 0.0211,1.53684 0.0211,0.52632 0.0421,1.01053 0.42105,1.62106 -0.7579,0.10526 -1.45263,-0.50527 -1.81053,-1.13685 -0.4,-0.63158 -0.50526,-1.34737 -0.52631,-2.02105 0.0211,-0.69474 0.14736,-1.36842 0.46315,-1.97895 0.29474,-0.58947 0.71579,-1.2421 1.41053,-1.49473"
       style="fill:#000000;fill-opacity:1;fill-rule:nonzero;stroke:none;stroke-width:21.0526"
       id="path14488"
       clip-path="none" /><g
       id="g18917"><g
         id="g18911"><path
           style="color:#000000;fill:#010202;stroke-linecap:round;stroke-miterlimit:10"
           d="m -0.34179688,-0.25585888 a 0.09,0.09 0 0 0 -0.0371094,0.12109376 l 0.0957031,0.18359374 0.26953125,0.04101563 A 0.09,0.09 0 0 0 0.08984375,0.01367188 0.09,0.09 0 0 0 0.01367188,-0.08984375 L -0.16601562,-0.11523437 -0.22070313,-0.21875 a 0.09,0.09 0 0 0 -0.12109375,-0.0371089 z"
           transform="matrix(21.052632,0,0,-21.052632,271.20016,238.11373)"
           id="path18907" /><path
           style="color:#000000;fill:#010202;stroke-linecap:round;stroke-miterlimit:10"
           d="M -1.1191406,-0.26367188 A 0.09,0.09 0 0 0 -1.171875,-0.21875 l -0.054687,0.10351563 -0.1796875,0.02539062 a 0.09,0.09 0 0 0 -0.076172,0.10351563 0.09,0.09 0 0 0 0.1035157,0.07617187 l 0.2675781,-0.04101563 0.097656,-0.18359374 a 0.09,0.09 0 0 0 -0.037109,-0.12109376 0.09,0.09 0 0 0 -0.068359,-0.007813 z"
           transform="matrix(21.052632,0,0,-21.052632,271.20016,238.11373)"
           id="path14492" /></g><path
         d="m 249.61279,261.06952 c 0,2.27368 4.27369,7.13684 6.06316,7.30526 1.76842,0.16842 7.62105,-3.26316 7.62105,-7.30526 0,-3.05263 -13.68421,-2.8 -13.68421,0"
         style="fill:#010202;fill-opacity:1;fill-rule:nonzero;stroke:none;stroke-width:21.0526"
         id="path14494"
         clip-path="none" /></g><path
       d="m 239.74543,343.77689 c -3.91579,-1.13685 -6.90527,-4.18948 -9.53685,-7.11579 -2.67368,-3.03158 -5.41052,-5.83158 -8.65263,-8.23158 -3.11579,-2.50526 -6.29474,-5.07369 -8.8,-8.3579 -1.26316,-1.6 -2.29474,-3.57894 -2.88421,-5.51579 -0.63158,-1.93684 -1.15789,-3.89473 -1.6,-5.87368 -0.88421,-3.97895 -1.43158,-8 -1.55789,-12.10526 -0.0842,-2 0.0631,-4.18948 0.25263,-6.08421 0.10526,-1.89474 -0.0211,-3.81053 -0.50527,-5.6 -0.4421,-1.89474 -1.30526,-3.22106 -2.29473,-5.45264 -0.58948,-2.48421 -0.3579,-4.33684 -0.37895,-6.4 0.10526,-4.06315 0.18947,-7.93684 0.16842,-12.02105 0.0421,-2.10526 0.37895,-4.33684 1.17895,-6.37895 0.8,-2.02105 1.57895,-3.6 1.91579,-5.41052 0.67368,-3.5579 0.54737,-7.76842 1.07368,-11.81053 0.52632,-4.04211 1.17895,-8.31579 3.72632,-12.14737 0.65263,-0.92631 1.43158,-1.83158 2.37895,-2.54737 0.8421,-0.73684 2.21052,-1.32631 2.94736,-1.68421 1.66316,-0.8 3.22106,-1.74737 4.48421,-3.01052 1.28421,-1.22106 2.27369,-2.71579 3.1579,-4.42106 l 1.34737,-2.67368 c 0.48421,-0.98947 1.17894,-1.9579 1.78947,-2.7579 2.54737,-3.32631 5.38948,-6.25263 8.50526,-8.98947 3.09474,-2.69474 6.48422,-5.15789 10.23158,-7.05263 3.72632,-1.89474 7.97895,-3.28421 12.4,-3.1579 8.73685,0.27369 16.42106,4.52632 22.96843,9.26316 3.32631,2.31579 6.4421,5.09474 9.51579,7.17895 3.55789,2.31579 6.54736,5.05263 9.55789,7.68421 1.49474,1.28421 3.01053,2.63158 4.48421,3.66316 0.56842,0.35789 1.85263,1.07368 2.61053,1.74737 0.86316,0.67368 1.6421,1.41052 2.37894,2.18947 2.90527,3.09474 5.22106,6.88421 6.14737,11.17895 0.48421,2.16842 0.44211,4.4 0.37895,6.37895 -0.0842,2.0421 -0.23158,4.08421 -0.46316,6.12631 -0.52631,4.04211 -1.13684,8.08421 -2.65263,12.04211 -1.43158,3.81052 -3.03158,7.41052 -3.68421,11.15789 -0.71579,3.81053 -0.29474,7.53684 0.29474,11.6 0.8421,8.02105 0.46316,16.73684 -4.04211,23.93684 -4.73684,6.56843 -9.70526,12.82106 -11.91579,20.52632 l -5.45263,23.38947 4.50526,-23.66315 c 1.93685,-7.93685 6.92632,-14.73685 11.28421,-21.24211 3.9579,-6.67368 4.25264,-14.96842 3.24211,-22.65263 -0.63158,-3.83158 -1.26316,-8.16842 -0.52632,-12.31579 0.63158,-4.18947 2.25264,-8 3.53685,-11.72632 1.30526,-3.55789 1.83158,-7.51579 2.25263,-11.41052 0.29473,-3.83158 0.75789,-8.02106 0.0421,-11.45264 -0.77894,-3.53684 -2.8,-6.86315 -5.38947,-9.53684 -0.63158,-0.67368 -1.32632,-1.30526 -2.04211,-1.87368 -0.77894,-0.63158 -1.26315,-0.86316 -2.4,-1.57895 -1.83158,-1.2421 -3.30526,-2.56842 -4.8421,-3.87368 -3.03158,-2.61053 -6.02105,-5.26316 -9.2,-7.32632 -3.57895,-2.37895 -6.46316,-4.94737 -9.72632,-7.2 -6.33684,-4.54737 -13.47368,-8.25263 -20.94737,-8.42105 -7.32631,-0.18948 -14.33684,4.21052 -20.18947,9.15789 -2.92632,2.52632 -5.70526,5.34737 -8.06316,8.37895 -0.58947,0.8 -1.07368,1.45263 -1.47368,2.25263 l -1.38948,2.67369 c -0.94737,1.85263 -2.21052,3.76842 -3.83158,5.28421 -18.54736,5.2421 -9.57894,27.32631 -17.2,40.61052 -0.0632,3.91579 -0.25263,8.04211 -0.4421,12 -0.0632,1.91579 -0.18947,4.10527 0.14737,5.5579 0.58947,1.41053 1.78947,3.6 2.21052,5.6421 0.52632,2.08421 0.61053,4.25264 0.42106,6.33685 -0.23158,2.08421 -0.4,3.87368 -0.3579,5.89473 0.0211,3.91579 0.50526,7.85264 1.24211,11.74737 0.82105,3.85263 1.47368,7.83158 3.81052,10.92632 2.27369,3.17895 5.28421,5.83158 8.29474,8.4421 3.13684,2.48421 5.93684,5.51579 8.44211,8.61053 2.50526,3.05263 5.2421,6.16842 9.11579,7.49474"
       style="fill:#010202;fill-opacity:1;fill-rule:nonzero;stroke:none;stroke-width:21.0526"
       id="path14496"
       clip-path="none" /><path
       d="m 259.94122,367.80636 c 1.28421,0.29474 2.54736,0.58947 3.83157,0.77895 1.24211,0.16842 2.58948,0.37895 3.68421,0.21052 0.98948,-0.16842 1.81053,-1.09473 2.52632,-2.0421 0.67368,-0.98947 1.28421,-2.12632 1.74737,-3.22105 l 0.56842,-1.38948 0.98947,1.13685 c 2.56842,2.96842 5.05264,5.97894 7.41053,9.13684 l -1.22105,0.37894 c 0.50526,-2.86315 1.13684,-5.76842 2.65263,-8.25263 -0.82105,2.73685 -1.05263,5.6 -1.26316,8.4 l -0.12631,1.5579 -1.11579,-1.17895 c -2.69474,-2.86316 -5.26316,-5.83158 -7.74737,-8.8421 l 1.55789,-0.25264 c -0.54737,1.28421 -1.2421,2.44211 -2.10526,3.5579 -0.88421,1.05263 -2.04211,2.18947 -3.72632,2.33684 -1.49473,0 -2.73684,-0.33684 -4.02105,-0.73684 -1.26316,-0.46316 -2.48421,-0.94737 -3.6421,-1.57895"
       style="fill:#010202;fill-opacity:1;fill-rule:nonzero;stroke:none;stroke-width:21.0526"
       id="path14498"
       clip-path="none" /><path
       d="m 252.07595,287.19162 c -2.77895,0.37895 -5.6,-0.23158 -8.31579,-0.82105 -0.67368,-0.16842 -1.34737,-0.37895 -2.02105,-0.58947 -0.69474,-0.21053 -1.5579,-0.58948 -2.21053,-1.17895 -1.41052,-1.22105 -1.87368,-2.98947 -2.12631,-4.42105 -0.50527,-2.96842 -0.3579,-5.6 -0.88421,-8.12632 -0.48421,-2.88421 -0.46316,-5.66316 -0.96842,-8.06316 -0.44211,-2.50526 -1.43158,-4.31579 -3.30527,-6.21052 -2.12631,-2.42106 -3.28421,-5.24211 -3.91579,-8.04211 -1.32631,-5.6 -1.13684,-11.24211 -0.4,-16.71579 0.71579,5.47368 1.57895,10.90526 3.24211,15.87369 0.88421,2.46315 2,4.8 3.6421,6.37894 2.14737,1.87369 3.97895,5.03158 4.46316,7.97895 0.52632,2.98947 0.46316,5.72632 0.77895,8.29474 0.35789,2.88421 0.14737,5.78947 0.27368,8.25263 0.0632,1.2421 0.33685,2.31579 0.92632,3.03158 0.50526,0.73684 1.89474,1.2 3.11579,1.78947 2.4421,1.1579 4.98947,2.10526 7.70526,2.56842"
       style="fill:#010202;fill-opacity:1;fill-rule:nonzero;stroke:none;stroke-width:21.0526"
       id="path14500"
       clip-path="none" /><path
       d="m 234.23174,224.9011 c 0.92632,-1.72632 2.04211,-3.38948 3.47369,-4.8 1.47368,-1.41053 3.22105,-2.37895 4.82105,-3.49474 3.30526,-2.12632 6.65263,-4.37895 10.75789,-5.32632 2,-0.4421 4.21053,-0.52631 6.29474,0.0842 2.04211,0.56842 3.91579,1.51579 5.64211,2.63158 3.43157,2.21053 6.35789,5.03158 9.15789,7.76842 2.88421,2.69474 5.53684,5.72632 8.31579,8.14737 0.67368,0.56842 1.47368,1.09474 1.85263,1.2 1.93684,0.67369 2.48421,1.9579 3.03158,2.98948 0.96842,2.18947 1.26316,4.42105 0.92632,6.75789 -0.16842,1.13684 -0.63158,2.42105 -1.24211,3.36842 -0.58947,0.94737 -1.2,1.74737 -1.78947,2.54737 -1.22106,1.6 -2.42106,3.11579 -3.51579,4.67368 -1.07369,1.5579 -2.10527,3.1579 -2.73684,4.73685 -0.33685,0.77894 -0.52632,1.55789 -0.58948,2.25263 -0.0211,0.50526 0.14737,1.49473 0.33684,2.4421 0.63158,3.72632 1.9579,7.41053 2.42106,11.66316 0.23158,2.10526 0.10526,4.42105 -0.42106,6.42105 -0.4421,1.87369 -0.8,3.78948 -1.13684,5.68421 -0.63158,3.83158 -1.11579,7.68422 -1.34737,11.51579 l -0.10526,2.96843 c -0.0842,1.15789 -0.33684,2.25263 -0.69474,3.26315 -0.73684,2.04211 -1.70526,3.81053 -2.56842,5.53685 -0.88421,1.72631 -1.70526,3.43157 -2.16842,5.17894 -0.25263,0.86316 -0.42105,1.74737 -0.46316,2.63158 -0.0632,0.88421 -0.10526,2.02105 -0.25263,3.01053 -0.54737,4.06316 -1.81052,7.83158 -2.69474,11.57895 -0.4421,1.87368 -0.77894,3.76842 -0.77894,5.6421 0.0421,1.87369 0.4,3.78948 0.86316,5.66316 1.01052,3.74737 2.31578,7.47368 4.08421,10.98947 -2.12632,-3.32631 -3.78948,-6.94737 -5.05264,-10.69473 -0.61052,-1.89474 -1.13684,-3.85264 -1.32631,-5.89474 -0.14737,-2.06316 0.0842,-4.08421 0.4,-6.06316 0.69474,-3.93684 1.78947,-7.70526 2.12631,-11.47368 0.0842,-0.96842 0.0842,-1.81053 0.10527,-2.86316 0,-1.07369 0.16842,-2.14737 0.4,-3.17895 0.46316,-2.08421 1.30526,-3.97895 2.12631,-5.78947 0.82106,-1.81053 1.66316,-3.53684 2.16842,-5.26316 0.25264,-0.84211 0.46316,-1.68421 0.48421,-2.48421 l 0.0842,-2.90526 c 0.16842,-4.02106 0.61052,-7.97895 1.22105,-11.91579 0.29473,-1.9579 0.65263,-3.93685 1.07368,-5.89474 0.42105,-1.81053 0.46316,-3.47368 0.27369,-5.28421 -0.42106,-3.5579 -1.78948,-7.32632 -2.54737,-11.34737 -0.16842,-0.98947 -0.4,-1.93684 -0.33684,-3.38947 0.10526,-1.28421 0.46315,-2.4 0.90526,-3.43158 0.86316,-2.04211 2.02105,-3.74737 3.22105,-5.41053 1.17895,-1.62105 2.44211,-3.17895 3.62105,-4.69474 0.58948,-0.75789 1.17895,-1.53684 1.62106,-2.25263 0.46316,-0.69473 0.67368,-1.30526 0.82105,-2.10526 0.27368,-1.5579 0.0632,-3.36842 -0.56842,-4.77895 -0.25263,-0.71579 -0.84211,-1.26316 -0.82105,-1.2 -1.51579,-0.50526 -2.27369,-1.2421 -3.11579,-1.91579 -3.1579,-2.75789 -5.5579,-5.78947 -8.27369,-8.58947 -2.67368,-2.86316 -5.34737,-5.64211 -8.4421,-7.83158 -3.09474,-2.23158 -6.50527,-3.64211 -10.25264,-2.88421 -3.68421,0.56842 -7.17894,2.48421 -10.58947,4.37895 -1.68421,0.98947 -3.47368,1.83157 -4.94737,3.05263 -1.49473,1.22105 -2.77894,2.73684 -3.85263,4.37895"
       style="fill:#010202;fill-opacity:1;fill-rule:nonzero;stroke:none;stroke-width:21.0526"
       id="path14502"
       clip-path="none" /><path
       d="m 259.94122,338.03162 c -0.90527,-3.89473 -1.28422,-8.10526 -0.12632,-12.25263 0.4421,-1.97895 1.6,-4.10526 2.0421,-5.57895 0.42106,-1.43157 0.44211,-3.38947 0.33685,-5.22105 -0.12632,-3.76842 -0.7579,-7.6421 -1.36842,-11.47368 -0.69474,-3.85263 -1.41053,-7.68421 -2.56843,-11.53685 2.58948,3.1579 4.18948,6.98948 5.45264,10.82106 1.22105,3.87368 2.06315,7.85263 2.27368,12.02105 0.0211,2.10526 0.0842,4.21053 -0.73684,6.56842 -0.50526,1.34737 -0.96842,1.87369 -1.41053,2.82105 -0.4421,0.84211 -0.86316,1.68422 -1.2421,2.54737 -1.49474,3.36842 -2,7.28421 -2.65263,11.28421"
       style="fill:#010202;fill-opacity:1;fill-rule:nonzero;stroke:none;stroke-width:21.0526"
       id="path14504"
       clip-path="none" /><path
       d="m 241.88227,299.54952 c 3.38947,3.28421 6.31579,7.07368 8.46316,11.43158 1.09473,2.16842 1.91578,4.52631 2.29473,7.07368 0.33684,2.67369 -0.0421,5.09474 -0.33684,7.43158 -0.69474,4.65263 -1.83158,9.17895 -1.72632,13.43158 0.0421,1.93684 1.05264,4.21053 1.64211,6.42105 0.63158,2.25263 1.28421,4.48421 1.76842,6.8 -1.28421,-2 -2.37895,-4.06316 -3.51579,-6.14737 -0.98947,-2.12631 -2.37895,-4 -2.8421,-6.73684 -0.73685,-5.09474 0.33684,-9.78947 0.92631,-14.31579 0.3579,-2.25263 0.69474,-4.50526 0.52632,-6.48421 -0.12632,-2.08421 -0.7579,-4.21053 -1.45263,-6.33684 -1.49474,-4.23158 -3.64211,-8.3579 -5.74737,-12.56842"
       style="fill:#010202;fill-opacity:1;fill-rule:nonzero;stroke:none;stroke-width:21.0526"
       id="path14506"
       clip-path="none" /><path
       d="m 241.88227,325.95373 c -1.49474,-1.89474 -3.05263,-3.68421 -4.63158,-5.51579 -1.57895,-1.78947 -3.22105,-3.64211 -4.42105,-5.89474 -2.42106,-4.65263 -1.9579,-9.93684 -1.81053,-14.67368 0.21053,-4.82106 0.75789,-9.57895 0.86316,-14.29474 0.0632,-2.33684 0.0842,-4.67368 -0.18948,-6.88421 -0.12631,-1.09474 -0.35789,-2.12632 -0.67368,-3.03158 -0.31579,-0.73684 -0.92632,-1.66316 -1.66316,-2.61053 -5.55789,-7.6 -12.31579,-15.07368 -14.94737,-25.09473 -0.25263,-1.26316 -0.46316,-2.56842 -0.35789,-3.91579 0.0211,-1.36842 0.23158,-2.44211 0.37895,-3.68421 0.29473,-2.4 0.65263,-4.8 1.2,-7.17895 1.13684,-4.71579 2.94736,-9.49474 6.25263,-13.03158 -2.61053,4.06316 -3.91579,8.67368 -4.44211,13.34737 -0.31579,2.35789 -0.50526,4.71579 -0.63158,7.09474 -0.16842,2.48421 -0.25263,4.56842 0.42106,6.67368 1.34736,4.25263 3.83157,8.29474 6.52631,12.12632 2.71579,3.87368 5.68421,7.51579 8.65263,11.41052 0.69474,0.96842 1.47369,2.02106 2.10527,3.51579 0.46315,1.34737 0.71579,2.67369 0.86315,3.93684 0.27369,2.56843 0.25264,5.05264 0.0842,7.49474 -0.33684,4.88421 -0.92631,9.64211 -1.53684,14.37895 -0.52631,4.71579 -1.2,9.47368 0.58948,13.6421 1.70526,4.23158 5.2,7.89474 7.36842,12.18948"
       style="fill:#010202;fill-opacity:1;fill-rule:nonzero;stroke:none;stroke-width:21.0526"
       id="path14508"
       clip-path="none" /><path
       d="m 227.92016,211.35162 c 1.97895,-3.55789 4.71579,-6.63158 7.57895,-9.53684 2.88421,-2.88421 6.0421,-5.5579 9.55789,-7.76842 3.51579,-2.12632 7.47369,-3.81053 11.76843,-4.27369 2.21052,-0.23158 4.0421,-0.21052 6.18947,-0.27368 2.06316,0 4.23158,0.0632 6.46316,0.8 1.09473,0.37895 2.23158,0.96842 3.15789,1.89474 0.46316,0.46315 0.84211,1.01052 1.1579,1.57894 0.23158,0.50527 0.52631,1.03158 0.71579,1.5579 0.8,2.16842 0.96842,4.35789 1.17894,6.35789 0.16842,2.02106 0.37895,3.89474 0.98948,5.5579 0.63158,1.72631 1.51579,2.96842 2.94737,4.50526 2.73684,3.05263 5.22105,6 8.42105,8.14737 3.03158,1.89474 7.2421,3.70526 10.33684,6.94737 1.5579,1.62105 2.86316,3.66316 3.51579,5.95789 0.65263,2.25263 0.63158,4.71579 0.10526,6.92632 -1.07368,4.4421 -3.57894,7.93684 -5.76842,11.32632 -1.11579,1.68421 -2.23158,3.32631 -3.05263,4.98947 -0.90526,1.70526 -1.05263,3.03158 -1.05263,5.15789 0,3.9579 0.16842,8 0.35789,12.02106 0.23158,4.0421 0.50527,8.06315 0.94737,12.06315 0.37895,3.89474 1.43158,8.04211 1.05263,12.23158 -0.23157,4.18948 -1.49473,8.14737 -2.48421,12.04211 -1.01052,3.89474 -1.55789,7.89474 -1.45263,11.95789 -0.50526,-4.02105 -0.31579,-8.16842 0.46316,-12.16842 0.73684,-4.02105 1.68421,-7.93684 1.62105,-11.89473 0.14737,-3.9579 -0.98947,-7.72632 -1.57894,-11.87369 -0.61053,-4.0421 -1.07369,-8.08421 -1.47369,-12.12631 -0.4,-4.06316 -0.71579,-8.10527 -0.73684,-12.27369 0.0421,-1.07368 -0.0421,-1.97895 0.18947,-3.30526 0.21053,-1.24211 0.65263,-2.27369 1.11579,-3.30527 0.96842,-1.97894 2.10527,-3.68421 3.2,-5.41052 2.14737,-3.38948 4.3579,-6.73684 5.13684,-10.25263 0.8,-3.45264 -0.27368,-6.90527 -2.82105,-9.43158 -2.52631,-2.71579 -5.93684,-4.23158 -9.72631,-6.63158 -3.53685,-2.46316 -6.29474,-5.81053 -8.90527,-8.82105 -7.36842,-6.46316 -2.08421,-18.65264 -8.54737,-21.01053 -3.26315,-1.13684 -7.6421,-0.92632 -11.47368,-0.86316 -3.81053,0.23158 -7.57895,1.62105 -11.03158,3.49474 -6.94737,3.85263 -13.2,9.26316 -18.06316,15.70526"
       style="fill:#010202;fill-opacity:1;fill-rule:nonzero;stroke:none;stroke-width:21.0526"
       id="path14510"
       clip-path="none" /><path
       d="m 225.67385,316.68425 c -0.82106,-3.62105 -1.30527,-7.36842 -2.33685,-10.69473 -0.56842,-1.66316 -1.28421,-3.17895 -2.33684,-4.48421 -0.98947,-1.26316 -2.4,-2.8 -3.49474,-4.25263 -2.23157,-3.01053 -4.25263,-5.97895 -6.54736,-8.82106 -1.11579,-1.43158 -2.23158,-2.71579 -3.68421,-3.78947 -0.67369,-0.50526 -1.68421,-1.41053 -1.78948,-2.46316 -0.18947,-0.98947 -0.10526,-1.91579 -0.0421,-2.8421 0.23158,0.88421 0.42105,1.81052 0.75789,2.61052 0.33684,0.82105 0.96842,1.09474 1.83158,1.51579 1.72632,0.84211 3.28421,2.14737 4.58947,3.49474 2.69474,2.61052 4.94737,5.70526 7.13685,8.56842 1.09473,1.53684 2.18947,2.69474 3.43158,4.4 1.11578,1.66316 1.91578,3.57895 2.27368,5.49474 0.77895,3.83158 0.48421,7.53684 0.21053,11.26315"
       style="fill:#010202;fill-opacity:1;fill-rule:nonzero;stroke:none;stroke-width:21.0526"
       id="path14512"
       clip-path="none" /><path
       d="m 288.59174,298.00425 c -2.12631,4.94737 -4.69473,9.66316 -6.42105,14.52632 -0.82105,2.44211 -1.51579,4.88421 -1.66316,7.30526 -0.18947,2.4 0.29474,4.71579 0.98948,7.24211 1.32631,4.98947 3.2,10.0421 4.46315,15.30526 1.22106,5.17895 2.33685,10.90527 0.63158,16.14737 0.10527,-2.69474 -0.29473,-5.28421 -1.05263,-7.78947 -0.65263,-2.54737 -1.53684,-5.01053 -2.4,-7.49474 -1.81053,-4.96842 -3.81053,-9.87368 -5.30526,-15.2 -0.65263,-2.61053 -1.26316,-5.6 -0.88421,-8.54737 0.4,-2.88421 1.28421,-5.6 2.50526,-8.08421 2.33684,-5.05263 5.76842,-9.2421 9.13684,-13.41053"
       style="fill:#010202;fill-opacity:1;fill-rule:nonzero;stroke:none;stroke-width:21.0526"
       id="path14514"
       clip-path="none" /></g></svg>
